# xmcd
#
# Track frame offsets: 
#        150
#        20478
#        39437
#        55712
#        72978
#        92853
#        113464
#        135400
#        153453
#        172972
#        192812
#        219643
#        245422
#        273056
#
# Disc length: 4373 seconds
#
# Revision: 0
# Processed by: cddbd v1.5.2PL0 Copyright (c) Steve Scherf et al.
# Submitted via: ExactAudioCopy v0.95a5
#
DISCID=b411130e
DTITLE=Apocalyptica - Worlds Collide
DYEAR=2007
DGENRE=Metal
TTITLE0=Worlds Collide
TTITLE1=Grace
TTITLE2=I'm Not Jesus
TTITLE3=Ion
TTITLE4=Helden
TTITLE5=Stroke
TTITLE6=Last Hope
TTITLE7=I Don't Care
TTITLE8=Burn
TTITLE9=S.O.S. (Anything But Love)
TTITLE10=Peace
TTITLE11=Ural
TTITLE12=Dreamer
TTITLE13=Video Bonus
EXTD=
EXTT0=
EXTT1=
EXTT2=
EXTT3=
EXTT4=
EXTT5=
EXTT6=
EXTT7=
EXTT8=
EXTT9=
EXTT10=
EXTT11=
EXTT12=
EXTT13=
PLAYORDER=
